<svg xmlns:xlink="http://www.w3.org/1999/xlink" width="22.09" xmlns="http://www.w3.org/2000/svg" height="22.09" id="screenshot-5941ff7b-918c-80a8-8002-49b1b54cfae2" viewBox="0 0 22.09 22.09" style="-webkit-print-color-adjust: exact;" fill="none" version="1.1"><g id="shape-5941ff7b-918c-80a8-8002-49b1b54cfae2" width="48" version="1.1" height="48" rx="0" ry="0" style="fill: rgb(0, 0, 0);"><g id="shape-5941ff7b-918c-80a8-8002-49b1b54cfae4"><defs id="defs10" rx="0" ry="0" style="fill: rgb(0, 0, 0);"/></g><g id="shape-5941ff7b-918c-80a8-8002-49b1b54cfae5"><g class="fills" id="fills-5941ff7b-918c-80a8-8002-49b1b54cfae5"><path fill="none" rx="0" ry="0" d="M0.000,0.000L22.090,0.000L22.090,22.090L0.000,22.090ZZ" style="fill: none;"/></g></g><g id="shape-5941ff7b-918c-80a8-8002-49b1b54cfae6"><g class="fills" id="fills-5941ff7b-918c-80a8-8002-49b1b54cfae6"><path rx="0" ry="0" d="M11.045,10.125C13.587,10.125,15.647,12.185,15.647,14.727L15.647,20.249L6.443,20.249L6.443,14.727C6.443,12.185,8.503,10.125,11.045,10.125ZZM4.867,12.891C4.721,13.385,4.634,13.895,4.609,14.410L4.602,14.727L4.602,20.249L1.841,20.249L1.841,16.107C1.840,14.464,3.078,13.083,4.712,12.904L4.867,12.891ZZM17.223,12.891C18.923,12.995,20.249,14.404,20.249,16.107L20.249,20.249L17.488,20.249L17.488,14.727C17.488,14.089,17.396,13.473,17.223,12.891ZZM5.062,7.363C6.333,7.363,7.363,8.394,7.363,9.664C7.363,10.935,6.333,11.965,5.062,11.965C3.791,11.965,2.761,10.935,2.761,9.664C2.761,8.394,3.791,7.363,5.062,7.363ZZM17.028,7.363C18.299,7.363,19.329,8.394,19.329,9.664C19.329,10.935,18.299,11.965,17.028,11.965C15.757,11.965,14.727,10.935,14.727,9.664C14.727,8.394,15.757,7.363,17.028,7.363ZZM11.045,1.841C13.078,1.841,14.727,3.489,14.727,5.523C14.727,7.556,13.078,9.204,11.045,9.204C9.012,9.204,7.363,7.556,7.363,5.523C7.363,3.489,9.012,1.841,11.045,1.841ZZ" style="fill: rgb(39, 15, 79); fill-opacity: 1;"/></g></g></g></svg>