<svg xmlns:xlink="http://www.w3.org/1999/xlink" width="22.088" xmlns="http://www.w3.org/2000/svg" height="22.088" id="screenshot-4c948c9b-c5cd-8025-8002-49778143b24c" viewBox="0 0 22.088 22.088" style="-webkit-print-color-adjust: exact;" fill="none" version="1.1"><g id="shape-4c948c9b-c5cd-8025-8002-49778143b24c" width="24" version="1.1" height="24" rx="0" ry="0" style="fill: rgb(0, 0, 0);"><g id="shape-4c948c9b-c5cd-8025-8002-49778143b24e"><defs id="defs10" rx="0" ry="0" style="fill: rgb(0, 0, 0);"/></g><g id="shape-4c948c9b-c5cd-8025-8002-49778143b24f"><g class="fills" id="fills-4c948c9b-c5cd-8025-8002-49778143b24f"><path fill="none" rx="0" ry="0" d="M0.000,0.000L22.088,0.000L22.088,22.088L0.000,22.088ZZ" style="fill: none;"/></g></g><g id="shape-4c948c9b-c5cd-8025-8002-49778143b250"><g class="fills" id="fills-4c948c9b-c5cd-8025-8002-49778143b250"><path rx="0" ry="0" d="M11.044,1.841C5.959,1.841,1.841,5.959,1.841,11.044C1.839,15.006,4.374,18.525,8.134,19.776C8.594,19.856,8.766,19.580,8.766,19.338C8.766,19.120,8.754,18.396,8.754,17.624C6.442,18.050,5.844,17.061,5.660,16.543C5.556,16.278,5.108,15.462,4.717,15.242C4.395,15.070,3.934,14.644,4.705,14.633C5.430,14.621,5.947,15.300,6.120,15.577C6.948,16.968,8.272,16.577,8.800,16.336C8.881,15.738,9.122,15.335,9.387,15.105C7.340,14.875,5.200,14.081,5.200,10.561C5.200,9.559,5.556,8.732,6.143,8.087C6.051,7.857,5.729,6.914,6.235,5.648C6.235,5.648,7.006,5.407,8.766,6.592C9.515,6.384,10.289,6.280,11.067,6.281C11.849,6.281,12.632,6.384,13.368,6.591C15.127,5.395,15.899,5.649,15.899,5.649C16.405,6.914,16.083,7.858,15.991,8.088C16.577,8.732,16.934,9.548,16.934,10.561C16.934,14.093,14.783,14.875,12.736,15.105C13.069,15.393,13.357,15.945,13.357,16.808C13.357,18.038,13.345,19.028,13.345,19.339C13.345,19.580,13.518,19.867,13.978,19.775C17.724,18.510,20.246,14.998,20.247,11.044C20.247,5.959,16.129,1.841,11.044,1.841ZZ" style="fill: rgb(39, 15, 79); fill-opacity: 1;"/></g></g></g></svg>