<svg xmlns:xlink="http://www.w3.org/1999/xlink" width="22.09" xmlns="http://www.w3.org/2000/svg" height="22.09" id="screenshot-5941ff7b-918c-80a8-8002-49a82db882fd" viewBox="0 0 22.09 22.09" style="-webkit-print-color-adjust: exact;" fill="none" version="1.1"><g id="shape-5941ff7b-918c-80a8-8002-49a82db882fd" width="48" version="1.1" height="48" rx="0" ry="0" style="fill: rgb(0, 0, 0);"><g id="shape-5941ff7b-918c-80a8-8002-49a82db8cd95"><defs id="defs10" rx="0" ry="0" style="fill: rgb(0, 0, 0);"/></g><g id="shape-5941ff7b-918c-80a8-8002-49a82db8cd96"><g class="fills" id="fills-5941ff7b-918c-80a8-8002-49a82db8cd96"><path fill="none" rx="0" ry="0" d="M0.000,0.000L22.090,0.000L22.090,22.090L0.000,22.090ZZ" style="fill: none;"/></g></g><g id="shape-5941ff7b-918c-80a8-8002-49a82db8cd97"><g class="fills" id="fills-5941ff7b-918c-80a8-8002-49a82db8cd97"><path rx="0" ry="0" d="M18.408,18.408C18.408,18.917,17.996,19.329,17.488,19.329L4.602,19.329C4.094,19.329,3.682,18.917,3.682,18.408L3.682,10.125L0.920,10.125L10.426,1.484C10.777,1.164,11.313,1.164,11.664,1.484L21.170,10.125L18.408,10.125L18.408,18.408ZZM10.125,11.965L10.125,17.488L11.965,17.488L11.965,11.965L10.125,11.965ZZ" style="fill: rgb(39, 15, 79); fill-opacity: 1;"/></g></g></g></svg>