<svg xmlns:xlink="http://www.w3.org/1999/xlink" width="22.09" xmlns="http://www.w3.org/2000/svg" height="22.09" id="screenshot-5941ff7b-918c-80a8-8002-49b1b54cfaf7" viewBox="0 0 22.09 22.09" style="-webkit-print-color-adjust: exact;" fill="none" version="1.1"><g id="shape-5941ff7b-918c-80a8-8002-49b1b54cfaf7" width="48" version="1.1" height="48" rx="0" ry="0" style="fill: rgb(0, 0, 0);"><g id="shape-5941ff7b-918c-80a8-8002-49b1b54cfaf9"><defs id="defs10" rx="0" ry="0" style="fill: rgb(0, 0, 0);"/></g><g id="shape-5941ff7b-918c-80a8-8002-49b1b54cfafa"><g class="fills" id="fills-5941ff7b-918c-80a8-8002-49b1b54cfafa"><path fill="none" rx="0" ry="0" d="M0.000,0.000L22.090,0.000L22.090,22.090L0.000,22.090ZZ" style="fill: none;"/></g></g><g id="shape-5941ff7b-918c-80a8-8002-49b1b54cfafb"><g class="fills" id="fills-5941ff7b-918c-80a8-8002-49b1b54cfafb"><path rx="0" ry="0" d="M3.482,2.601L11.045,0.920L18.608,2.601C19.029,2.695,19.329,3.068,19.329,3.499L19.329,12.692C19.329,14.538,18.406,16.262,16.869,17.286L11.045,21.170L5.221,17.286C3.685,16.262,2.762,14.539,2.761,12.693L2.761,3.499C2.761,3.068,3.061,2.695,3.482,2.601ZZM11.045,10.125C12.316,10.125,13.346,9.094,13.346,7.824C13.346,6.553,12.316,5.523,11.045,5.523C9.774,5.523,8.744,6.553,8.744,7.824C8.744,9.094,9.774,10.125,11.045,10.125ZZM6.928,14.727L15.162,14.727C14.931,12.627,13.157,11.038,11.045,11.038C8.933,11.038,7.159,12.627,6.928,14.727ZZ" style="fill: rgb(39, 15, 79); fill-opacity: 1;"/></g></g></g></svg>