<svg xmlns:xlink="http://www.w3.org/1999/xlink" width="22.09" xmlns="http://www.w3.org/2000/svg" height="22.09" id="screenshot-5941ff7b-918c-80a8-8002-49b1b54c801f" viewBox="0 0 22.09 22.09" style="-webkit-print-color-adjust: exact;" fill="none" version="1.1"><g id="shape-5941ff7b-918c-80a8-8002-49b1b54c801f" width="48" version="1.1" height="48" rx="0" ry="0" style="fill: rgb(0, 0, 0);"><g id="shape-5941ff7b-918c-80a8-8002-49b1b54c8021"><defs id="defs10" rx="0" ry="0" style="fill: rgb(0, 0, 0);"/></g><g id="shape-5941ff7b-918c-80a8-8002-49b1b54c8022"><g class="fills" id="fills-5941ff7b-918c-80a8-8002-49b1b54c8022"><path fill="none" rx="0" ry="0" d="M0.000,0.000L22.090,0.000L22.090,22.090L0.000,22.090ZZ" style="fill: none;"/></g></g><g id="shape-5941ff7b-918c-80a8-8002-49b1b54c8023"><g class="fills" id="fills-5941ff7b-918c-80a8-8002-49b1b54c8023"><path rx="0" ry="0" d="M14.727,19.329L10.344,11.294L13.806,5.522L21.170,19.329L14.727,19.329ZZM7.363,9.204L12.886,19.329L1.841,19.329L7.363,9.204ZZM5.062,7.363C3.791,7.363,2.761,6.333,2.761,5.062C2.761,3.791,3.791,2.761,5.062,2.761C6.333,2.761,7.363,3.791,7.363,5.062C7.363,6.333,6.333,7.363,5.062,7.363ZZ" style="fill: rgb(39, 15, 79); fill-opacity: 1;"/></g></g></g></svg>