<svg xmlns:xlink="http://www.w3.org/1999/xlink" width="22.09" xmlns="http://www.w3.org/2000/svg" height="22.09" id="screenshot-5941ff7b-918c-80a8-8002-49b1b54cfae9" viewBox="0 0 22.09 22.09" style="-webkit-print-color-adjust: exact;" fill="none" version="1.1"><g id="shape-5941ff7b-918c-80a8-8002-49b1b54cfae9" width="48" version="1.1" height="48" rx="0" ry="0" style="fill: rgb(0, 0, 0);"><g id="shape-5941ff7b-918c-80a8-8002-49b1b54cfaeb"><defs id="defs10" rx="0" ry="0" style="fill: rgb(0, 0, 0);"/></g><g id="shape-5941ff7b-918c-80a8-8002-49b1b54cfaec"><g class="fills" id="fills-5941ff7b-918c-80a8-8002-49b1b54cfaec"><path fill="none" rx="0" ry="0" d="M0.000,0.000L22.090,0.000L22.090,22.090L0.000,22.090ZZ" style="fill: none;"/></g></g><g id="shape-5941ff7b-918c-80a8-8002-49b1b54cfaed"><g class="fills" id="fills-5941ff7b-918c-80a8-8002-49b1b54cfaed"><path rx="0" ry="0" d="M11.045,0.920L19.789,5.983L19.789,16.107L11.045,21.170L2.301,16.107L2.301,5.983L11.045,0.920ZZM11.045,13.806C12.570,13.806,13.806,12.570,13.806,11.045C13.806,9.520,12.570,8.284,11.045,8.284C9.520,8.284,8.284,9.520,8.284,11.045C8.284,12.570,9.520,13.806,11.045,13.806ZZ" style="fill: rgb(39, 15, 79); fill-opacity: 1;"/></g></g></g></svg>