<svg xmlns:xlink="http://www.w3.org/1999/xlink" width="22.09" xmlns="http://www.w3.org/2000/svg" height="22.09" id="screenshot-5941ff7b-918c-80a8-8002-49b1b54cfaf0" viewBox="0 0 22.09 22.09" style="-webkit-print-color-adjust: exact;" fill="none" version="1.1"><g id="shape-5941ff7b-918c-80a8-8002-49b1b54cfaf0" width="48" version="1.1" height="48" rx="0" ry="0" style="fill: rgb(0, 0, 0);"><g id="shape-5941ff7b-918c-80a8-8002-49b1b54cfaf2"><defs id="defs10" rx="0" ry="0" style="fill: rgb(0, 0, 0);"/></g><g id="shape-5941ff7b-918c-80a8-8002-49b1b54cfaf3"><g class="fills" id="fills-5941ff7b-918c-80a8-8002-49b1b54cfaf3"><path fill="none" rx="0" ry="0" d="M0.000,0.000L22.090,0.000L22.090,22.090L0.000,22.090ZZ" style="fill: none;"/></g></g><g id="shape-5941ff7b-918c-80a8-8002-49b1b54cfaf4"><g class="fills" id="fills-5941ff7b-918c-80a8-8002-49b1b54cfaf4"><path rx="0" ry="0" d="M11.045,20.249C5.962,20.249,1.841,16.128,1.841,11.045C1.841,5.962,5.962,1.841,11.045,1.841C16.128,1.841,20.249,5.962,20.249,11.045C20.249,16.128,16.128,20.249,11.045,20.249ZZM10.125,10.125L10.125,15.647L11.965,15.647L11.965,10.125L10.125,10.125ZZM10.125,6.443L10.125,8.284L11.965,8.284L11.965,6.443L10.125,6.443ZZ" style="fill: rgb(39, 15, 79); fill-opacity: 1;"/></g></g></g></svg>