<svg xmlns:xlink="http://www.w3.org/1999/xlink" width="22.09" xmlns="http://www.w3.org/2000/svg" height="22.09" id="screenshot-5941ff7b-918c-80a8-8002-49b1b54cfadb" viewBox="0 0 22.09 22.09" style="-webkit-print-color-adjust: exact;" fill="none" version="1.1"><g id="shape-5941ff7b-918c-80a8-8002-49b1b54cfadb" width="48" version="1.1" height="48" rx="0" ry="0" style="fill: rgb(0, 0, 0);"><g id="shape-5941ff7b-918c-80a8-8002-49b1b54cfadd"><defs id="defs10" rx="0" ry="0" style="fill: rgb(0, 0, 0);"/></g><g id="shape-5941ff7b-918c-80a8-8002-49b1b54cfade"><g class="fills" id="fills-5941ff7b-918c-80a8-8002-49b1b54cfade"><path fill="none" rx="0" ry="0" d="M0.000,0.000L22.090,0.000L22.090,22.090L0.000,22.090ZZ" style="fill: none;"/></g></g><g id="shape-5941ff7b-918c-80a8-8002-49b1b54cfadf"><g class="fills" id="fills-5941ff7b-918c-80a8-8002-49b1b54cfadf"><path rx="0" ry="0" d="M19.329,2.754L19.329,19.336C19.325,19.839,18.918,20.246,18.415,20.249L3.675,20.249C3.171,20.249,2.762,19.841,2.761,19.336L2.761,2.754C2.765,2.251,3.172,1.844,3.675,1.841L18.415,1.841C18.919,1.841,19.329,2.249,19.329,2.754ZZM10.394,12.078L8.116,9.799L6.815,11.101L10.394,14.681L15.601,9.474L14.300,8.172L10.394,12.078ZZ" style="fill: rgb(39, 15, 79); fill-opacity: 1;"/></g></g></g></svg>